PathFileType	4	(X/Y/Z)	c:/Users/goper/Files/vsCode/490R/osim_files/C17/C17_Slow_02.trc
DataRate	CameraRate	NumFrames	NumMarkers	Units                	OrigDataRate	OrigDataStartFrame	OrigNumFrames
250.00	250.00	8	36	mm	250.0	1264	2527
                Frame#	Time	LPSIS			LASIS			LTH1			LTH2			LTH3			LTH4			LLFE			LMFE			LSH1			LSH2			LSH3			LSH4			LLMAL			LMMAL			LCAL			LMTP5			LTOE			LMTP1			RPSIS			RASIS			RTH1			RTH2			RTH3			RTH4			RLFE			RMFE			RSH1			RSH2			RSH3			RSH4			RLMAL			RMMAL			RCAL			RMTP1			RTOE			RMTP5		
		X1	Y1	Z1	X2	Y2	Z2	X3	Y3	Z3	X4	Y4	Z4	X5	Y5	Z5	X6	Y6	Z6	X7	Y7	Z7	X8	Y8	Z8	X9	Y9	Z9	X10	Y10	Z10	X11	Y11	Z11	X12	Y12	Z12	X13	Y13	Z13	X14	Y14	Z14	X15	Y15	Z15	X16	Y16	Z16	X17	Y17	Z17	X18	Y18	Z18	X19	Y19	Z19	X20	Y20	Z20	X21	Y21	Z21	X22	Y22	Z22	X23	Y23	Z23	X24	Y24	Z24	X25	Y25	Z25	X26	Y26	Z26	X27	Y27	Z27	X28	Y28	Z28	X29	Y29	Z29	X30	Y30	Z30	X31	Y31	Z31	X32	Y32	Z32	X33	Y33	Z33	X34	Y34	Z34	X35	Y35	Z35	X36	Y36	Z36

1264	5.05200	-1592.86267	1084.37952	328.47806	-1788.95361	1038.03125	424.67310	-1758.88452	698.82288	447.69098	-1774.33044	659.88287	436.05960	-1814.12000	719.68555	450.44693	-1826.62866	677.31427	441.85867	-1813.88464	505.20386	395.39267	-1817.78931	515.20917	272.57520	-1743.07300	279.81638	379.96243	-1740.84888	236.97090	371.45447	-1804.21497	271.56763	377.93649	-1793.95264	229.83308	369.76678	-1745.85266	98.86311	341.69601	-1759.71338	109.77964	255.12315	-1669.41699	61.23943	295.56952	-1861.68689	47.18064	359.98367	-1919.59070	65.76917	292.69556	-1901.39856	46.45676	244.72379	-1597.96497	1077.09912	254.62894	-1778.57507	1041.37073	153.23149	-1745.44006	744.71002	93.08459	-1752.07666	698.61261	97.65326	-1805.16016	749.74615	102.59403	-1805.21692	702.03949	102.70861	-1772.63000	485.24210	103.37737	-1778.64197	493.68387	229.93295	-1578.90271	399.61340	102.31295	-1554.11755	363.37897	113.00951	-1625.65271	356.11313	105.30769	-1590.12793	325.76816	114.99920	-1431.61316	240.91228	145.80812	-1472.53931	224.87164	229.55334	-1367.85596	267.07666	203.52917	-1504.00391	77.39072	219.38870	-1527.46460	84.39334	172.89359	-1460.20325	104.60509	114.81464
1265	5.05600	-1597.54016	1085.59741	328.65857	-1793.55823	1038.64429	424.83566	-1760.23889	700.04980	446.52588	-1776.76465	660.52539	436.21417	-1817.13916	720.44635	450.20868	-1829.81128	677.73315	441.85858	-1814.84607	505.35950	395.54541	-1818.80725	515.27472	272.74490	-1743.47498	280.06522	380.04584	-1741.11658	237.22371	371.47806	-1804.63867	271.71414	378.08170	-1794.31543	229.99687	369.87421	-1745.98633	99.06535	341.66684	-1759.81018	109.90537	255.14651	-1669.50488	61.56018	295.59232	-1861.73120	47.19751	359.96341	-1919.64722	65.74004	292.68094	-1901.43250	46.44018	244.70059	-1602.66687	1078.35413	254.87592	-1783.16272	1042.56665	153.52704	-1752.42786	746.06018	93.04689	-1759.37109	699.94666	97.51761	-1812.02295	751.43579	102.47320	-1812.43298	703.70319	102.62565	-1782.00134	486.49121	103.41520	-1787.64514	495.45920	229.94879	-1589.47278	398.27240	102.01924	-1565.06079	361.63141	112.98219	-1636.63049	355.51990	105.33180	-1601.80396	324.55316	115.21297	-1443.83044	238.20888	145.76996	-1485.33923	222.33565	229.38277	-1379.34424	262.21936	204.03169	-1520.51208	75.96583	217.12721	-1543.71045	84.15034	170.75179	-1475.85388	103.49050	113.04440
1266	5.06000	-1602.46411	1086.74731	328.86893	-1798.32617	1039.44055	425.02563	-1762.04138	701.14893	445.83600	-1779.07202	661.17572	436.38403	-1819.84155	720.65381	450.39813	-1831.43396	677.97980	442.01761	-1815.79700	505.56482	395.71976	-1819.68323	515.36334	272.92496	-1743.81213	280.29245	380.11057	-1741.41028	237.50769	371.51898	-1805.04871	271.87241	378.20670	-1794.66150	230.16533	369.98358	-1746.17493	99.24292	341.67639	-1759.93384	110.04919	255.16127	-1669.62769	61.90123	295.58066	-1861.75305	47.23233	359.91208	-1919.70813	65.73606	292.65442	-1901.48853	46.44445	244.70036	-1607.41296	1079.57324	255.07404	-1787.80457	1043.89795	153.84789	-1759.31042	747.32349	92.96802	-1766.59790	701.33862	97.38081	-1819.00220	753.21503	102.47312	-1819.62939	705.46295	102.54588	-1791.41431	487.71680	102.69543	-1796.42871	496.85535	230.10800	-1600.02014	396.93027	101.73502	-1576.08337	359.80200	112.95810	-1647.70496	354.89478	105.26724	-1613.31274	323.38437	115.37122	-1456.13245	235.43504	145.74846	-1498.29968	219.73833	229.18027	-1391.03210	257.20529	204.48213	-1537.31445	74.54835	214.95340	-1560.17786	84.04971	168.76761	-1491.56934	102.48600	111.35588
1267	5.06400	-1607.47229	1087.45007	329.56021	-1803.03821	1040.05981	425.23132	-1764.57715	701.96472	445.91626	-1781.46057	661.78815	436.53500	-1822.64941	721.03906	450.39316	-1833.78052	678.26044	442.01550	-1816.70276	505.75543	395.85968	-1820.46973	515.39062	273.10028	-1744.18237	280.54105	380.20654	-1741.76025	237.76160	371.57321	-1805.42151	272.01202	378.32870	-1794.93652	230.27531	370.07565	-1746.27466	99.39180	341.68262	-1760.04065	110.21843	255.16708	-1669.94739	62.12416	295.44141	-1861.77502	47.23064	359.88940	-1919.73682	65.69815	292.63556	-1901.53088	46.41079	244.69734	-1612.16235	1080.72571	255.29433	-1792.59583	1045.26343	154.21469	-1766.04224	748.68384	92.86180	-1773.69360	702.62250	97.25258	-1825.80603	754.85626	102.46792	-1826.73730	707.12280	102.40504	-1800.97632	489.04584	103.59138	-1805.61194	499.05701	229.86177	-1610.61743	395.37311	101.46527	-1587.19177	357.92456	112.92580	-1658.90918	354.05527	105.34065	-1624.55615	322.50485	115.30690	-1468.52271	232.52773	145.73282	-1511.19287	217.06296	228.97977	-1403.13708	251.73854	205.09865	-1554.22168	73.24599	212.96251	-1576.60632	84.15412	166.85355	-1507.60413	101.32159	109.71117
1268	5.06800	-1611.73523	1088.75476	329.26111	-1807.78613	1040.84399	425.44287	-1767.15137	702.64008	446.07120	-1783.76562	662.41492	436.71027	-1825.47583	721.54523	450.11493	-1836.19592	678.49646	442.02222	-1817.56836	505.88794	396.01407	-1821.23218	515.47687	273.26968	-1744.63904	280.83890	380.33807	-1742.06311	237.98410	371.63593	-1805.72864	272.08377	378.48114	-1795.21094	230.38907	370.17371	-1746.38794	99.49700	341.72903	-1760.28528	110.40920	255.04216	-1670.05603	62.22735	295.35428	-1861.78271	47.18470	359.87421	-1919.78870	65.64898	292.64804	-1901.35376	46.29637	244.79208	-1616.87927	1081.71375	255.49857	-1796.78943	1046.00110	154.33339	-1772.75012	749.98578	92.70219	-1780.67773	703.98352	97.10313	-1832.34570	756.59174	102.32536	-1833.79480	708.82733	102.27334	-1810.08630	490.40756	103.63779	-1814.38184	500.46506	230.08330	-1621.29126	393.75223	101.26056	-1598.39233	356.03284	112.87385	-1670.24182	353.24680	105.45522	-1636.37415	321.15512	115.49516	-1481.00708	229.50320	145.57323	-1524.32251	214.24600	228.84412	-1415.22522	246.33899	205.13718	-1571.21924	71.91453	211.08424	-1593.32007	84.07464	165.06999	-1523.87219	100.14119	108.13277
1269	5.07200	-1616.53772	1089.59570	329.46790	-1812.46570	1041.41614	425.70844	-1769.76550	703.28601	446.36151	-1786.44312	662.71655	436.93622	-1828.04297	721.77972	450.23846	-1838.48572	678.64709	442.10345	-1818.50305	506.03601	396.19058	-1821.97595	515.55652	273.41895	-1744.97009	281.06293	380.42316	-1742.37744	238.17419	371.71350	-1806.02063	272.13181	378.66513	-1795.42102	230.51357	370.32111	-1746.51587	99.65075	341.79507	-1760.61597	110.33509	254.65996	-1670.15613	62.45741	295.42685	-1861.80151	47.13842	359.88303	-1919.83093	65.58363	292.67575	-1901.34753	46.27374	244.80832	-1621.57336	1082.78870	255.69130	-1801.77612	1047.77087	154.86298	-1779.57520	751.22833	92.76474	-1787.67664	705.29828	96.92210	-1839.11401	758.26636	102.31085	-1840.82324	710.55902	102.15820	-1819.43311	491.69684	103.82437	-1823.30383	502.23254	230.17183	-1631.96533	392.01633	101.10509	-1609.69043	354.16052	112.79078	-1681.48755	352.40134	105.53278	-1648.13611	319.79987	115.68931	-1493.88586	226.21857	145.39467	-1537.60144	211.36217	228.69571	-1427.39062	240.73138	205.32686	-1588.37573	70.57837	209.39307	-1610.39587	84.32054	163.68062	-1540.40173	98.87493	106.67284
1270	5.07600	-1621.18518	1090.52722	329.71478	-1817.04370	1042.08057	425.90878	-1772.32715	704.02991	446.63599	-1788.38464	663.59247	437.06540	-1830.76697	721.95959	450.30643	-1840.78796	678.88470	442.21118	-1819.44849	506.22989	396.36078	-1822.73547	515.63361	273.57504	-1745.33252	281.33615	380.53897	-1742.70264	238.40213	371.77988	-1806.38159	272.23743	378.84698	-1795.63818	230.60422	370.46082	-1746.65332	99.78579	341.86050	-1760.74707	110.51589	254.65253	-1670.28564	62.69028	295.51483	-1861.82153	47.09057	359.90323	-1919.86267	65.49845	292.68402	-1901.41589	46.25526	244.82065	-1626.31287	1083.78027	255.87553	-1806.19360	1048.89819	155.19934	-1786.21509	752.54486	92.65680	-1794.39429	706.70972	96.61392	-1845.73401	759.90314	102.17780	-1847.71826	712.18329	101.91077	-1828.46265	493.07071	103.94312	-1832.39343	504.04306	230.29605	-1642.57983	390.31406	100.92512	-1621.09290	352.34149	112.66516	-1692.81262	351.54941	105.64256	-1659.97119	318.52698	115.91755	-1506.78955	222.83116	145.27547	-1551.04260	208.42891	228.52643	-1439.77295	235.06491	205.38046	-1605.66614	69.34802	207.90059	-1627.15051	84.13810	162.07909	-1556.88440	97.67066	105.15033
1271	5.08000	-1626.63806	1090.81116	330.49191	-1821.59070	1042.64258	426.14670	-1775.06335	704.60101	446.84061	-1791.26050	663.96118	437.23419	-1833.38489	722.22186	450.42133	-1843.18445	679.05811	442.20428	-1820.31506	506.38242	396.54620	-1823.50232	515.71631	273.85522	-1745.63855	281.64560	380.60550	-1743.05188	238.67194	371.91846	-1806.78296	272.38507	379.03491	-1795.91040	230.73796	370.62860	-1746.83618	99.92194	341.93704	-1760.87415	110.68871	254.64421	-1670.38037	62.96764	295.62015	-1861.85803	47.06248	359.92148	-1919.94019	65.42892	292.74136	-1901.40601	46.23045	244.81949	-1631.02576	1084.70435	256.00595	-1811.01794	1050.04395	155.54086	-1792.83887	753.72845	92.52830	-1801.32837	708.00684	96.38885	-1852.21582	761.50781	102.11537	-1854.63721	713.86749	101.83186	-1837.61841	494.44327	104.17019	-1841.09595	505.77408	230.41563	-1653.33472	388.62366	100.87027	-1632.60559	350.60947	112.48553	-1704.16809	350.77548	105.78127	-1671.79773	317.16809	116.10123	-1519.99011	219.36388	145.11507	-1564.46936	205.37541	228.38072	-1452.43481	229.15344	205.16393	-1623.07336	68.20458	206.47308	-1644.26147	84.16009	160.76616	-1573.90833	96.13494	103.96687
